<svg width="1600" height="359" viewBox="0 0 1600 359" fill="#3c8e7a" xmlns="http://www.w3.org/2000/svg">
<path d="M674.473 179.397V359H601.655V116.742L631.775 123.777C657.427 129.778 675.341 153.035 674.473 179.397ZM638.064 7.86282C616.343 7.86282 598.759 25.4507 598.759 47.1769C598.759 68.9032 616.343 86.4911 638.064 86.4911C659.785 86.4911 677.369 68.9032 677.369 47.1769C677.369 25.4507 659.785 7.86282 638.064 7.86282V7.86282ZM723.128 62.6543V358.959H795.945V0L765.825 7.03516C740.174 13.0357 722.259 36.2931 723.128 62.6543V62.6543ZM527.762 117.694C505.172 118.356 484.485 130.357 472.735 149.683L417.253 240.768L491.394 358.959H561.316L485.933 240.768L561.316 116.742L527.803 117.694H527.762ZM336.119 62.6543V358.959H408.937V0L378.817 7.03516C353.165 13.0357 335.25 36.2931 336.119 62.6543V62.6543ZM1374.8 62.6543V358.959H1447.62V0L1417.5 7.03516C1391.85 13.0357 1373.93 36.2931 1374.8 62.6543V62.6543ZM1599.96 116.742L1566.45 117.694C1543.86 118.356 1523.17 130.357 1511.42 149.683L1455.94 240.768L1530.08 358.959H1600L1524.62 240.768L1600 116.742H1599.96ZM969.011 179.397V359H1041.83V116.742L1011.71 123.777C986.057 129.778 968.142 153.035 969.011 179.397ZM844.601 62.6543V358.959H917.418V0L887.298 7.03516C861.647 13.0357 843.732 36.2931 844.601 62.6543V62.6543ZM1005.42 7.86282C983.699 7.86282 966.115 25.4507 966.115 47.1769C966.115 68.9032 983.699 86.4911 1005.42 86.4911C1027.14 86.4911 1044.72 68.9032 1044.72 47.1769C1044.72 25.4507 1027.14 7.86282 1005.42 7.86282V7.86282ZM287.464 104.162H195.78C149.979 104.162 112.867 67.0409 112.867 21.2296V0H162.598C220.108 0 287.464 46.639 287.464 104.162V104.162ZM0 254.797H91.6839C137.484 254.797 174.597 291.918 174.597 337.729V358.917H124.866C67.3562 358.959 0 312.32 0 254.797ZM213.819 147.449L195.325 141.2V250.079V358.959L213.819 352.71C257.84 337.853 287.464 296.553 287.464 250.079C287.464 203.606 257.84 162.305 213.819 147.449V147.449ZM73.6036 211.51L92.0976 217.759V108.879L92.139 0L73.645 6.24888C29.6235 21.1055 0 62.406 0 108.879C0 155.353 29.6235 196.653 73.645 211.51H73.6036ZM1163.09 358.959H1090.44V178.983C1089.53 152.58 1107.16 129.116 1132.85 122.95L1163.18 116.742L1163.09 153.284C1171.78 141.903 1218.41 123.488 1261.07 135.365C1297.39 145.462 1326.11 171.244 1326.11 198.971V359H1253.12V230.795C1253.12 205.261 1221.68 193.839 1200.62 199.302C1169.01 207.496 1163.14 229.967 1163.14 254.011V359L1163.09 358.959Z" fill="#3c8e7a"/>
</svg>
